<svg viewBox="0 0 32 32" xmlns="http://www.w3.org/2000/svg" aria-hidden="true">
  <path fill="#25D366" d="M19.11 16.88c-.27-.14-1.59-.78-1.84-.86-.24-.09-.42-.14-.6.14-.18.27-.69.86-.85 1.04-.16.18-.31.2-.58.07-.27-.14-1.14-.42-2.17-1.34-.8-.7-1.34-1.56-1.5-1.83-.16-.27-.02-.42.12-.55.13-.13.27-.31.4-.47.13-.16.18-.27.27-.45.09-.18.05-.34-.02-.48-.07-.14-.6-1.43-.82-1.96-.22-.53-.43-.46-.6-.46h-.51c-.18 0-.48.07-.73.34-.25.27-.97.95-.97 2.31s.99 2.68 1.13 2.86c.14.18 1.95 2.98 4.73 4.15.66.28 1.18.45 1.58.58.66.21 1.26.18 1.74.11.53-.08 1.59-.65 1.81-1.27.22-.62.22-1.15.15-1.26-.07-.11-.25-.18-.52-.32z"/>
  <path fill="#25D366" d="M16 3c-7.18 0-13 5.82-13 13 0 2.29.6 4.45 1.64 6.31L3 29l6.85-1.79A12.93 12.93 0 0 0 16 29c7.18 0 13-5.82 13-13S23.18 3 16 3zm0 23.5c-2.14 0-4.13-.63-5.8-1.71l-.41-.26-4.09 1.07 1.09-3.99-.27-.41A10.47 10.47 0 1 1 26.5 16c0 5.79-4.71 10.5-10.5 10.5z"/>
</svg>
